# xmcd CD database file
#
# Track frame offsets:
#	150
#	14399
#	29822
#	52955
#	67612
#	83499
#	103044
#	117060
#	130801
#	146682
#	164962
#
# Disc length: 2409 seconds
#
# Revision: 2
# Processed by: cddbd v1.4PL0 Copyright (c) Steve Scherf et al.
# Submitted via: CDex 1.51
#
DISCID=9009670b
DTITLE=Teeny Tucker - First Class Woman
DYEAR=2003
DGENRE=Blues
TTITLE0=First Class Woman
TTITLE1=Party My Blues Away
TTITLE2=Trouble
TTITLE3=Message Of The Blues
TTITLE4=Wade In The Water
TTITLE5=Show Me A Sign
TTITLE6=Country Man
TTITLE7=Somebody's Got To Win
TTITLE8=Don't Want Cha
TTITLE9=Dreamin'
TTITLE10=Keep On Blessin' Me
EXTD=YEAR: 2003
EXTT0=
EXTT1=
EXTT2=
EXTT3=
EXTT4=
EXTT5=
EXTT6=
EXTT7=
EXTT8=
EXTT9=
EXTT10=
PLAYORDER=
